<mxfile host="app.diagrams.net" modified="2023-12-03T10:13:55.396Z" agent="Mozilla/5.0 (Windows NT 10.0; Win64; x64) AppleWebKit/537.36 (KHTML, like Gecko) Chrome/119.0.0.0 Safari/537.36 Edg/119.0.0.0" etag="Gb_iLVB3w90XmfC18Fvd" version="22.1.5" type="github" pages="2">
  <diagram name="Type-1" id="EpgTQmb0M5Gfdp5IlpJl">
    <mxGraphModel dx="835" dy="514" grid="1" gridSize="10" guides="1" tooltips="1" connect="1" arrows="1" fold="1" page="1" pageScale="1" pageWidth="827" pageHeight="1169" math="0" shadow="0">
      <root>
        <mxCell id="0" />
        <mxCell id="1" parent="0" />
        <mxCell id="pCHAXBvN4n9YsazvCByU-16" style="edgeStyle=orthogonalEdgeStyle;rounded=0;orthogonalLoop=1;jettySize=auto;html=1;labelBackgroundColor=none;fontColor=default;" edge="1" parent="1" source="pCHAXBvN4n9YsazvCByU-14">
          <mxGeometry relative="1" as="geometry">
            <mxPoint x="420" y="120" as="targetPoint" />
          </mxGeometry>
        </mxCell>
        <mxCell id="pCHAXBvN4n9YsazvCByU-14" value="Mulai" style="ellipse;whiteSpace=wrap;html=1;rounded=0;labelBackgroundColor=none;" vertex="1" parent="1">
          <mxGeometry x="370" y="40" width="100" height="40" as="geometry" />
        </mxCell>
        <mxCell id="pCHAXBvN4n9YsazvCByU-15" value="&lt;font style=&quot;&quot;&gt;&lt;span style=&quot;font-size: 20px;&quot;&gt;Sistem Pembayaran&lt;/span&gt;&lt;br&gt;&lt;ul style=&quot;&quot;&gt;&lt;li style=&quot;&quot;&gt;&lt;font style=&quot;font-size: 12px;&quot;&gt;Tipe 1&lt;/font&gt;&lt;/li&gt;&lt;/ul&gt;&lt;/font&gt;" style="text;html=1;strokeColor=none;fillColor=none;align=left;verticalAlign=middle;whiteSpace=wrap;rounded=0;labelBackgroundColor=none;" vertex="1" parent="1">
          <mxGeometry x="10" y="10" width="200" height="80" as="geometry" />
        </mxCell>
        <mxCell id="pCHAXBvN4n9YsazvCByU-18" style="edgeStyle=orthogonalEdgeStyle;rounded=0;orthogonalLoop=1;jettySize=auto;html=1;labelBackgroundColor=none;fontColor=default;" edge="1" parent="1" source="pCHAXBvN4n9YsazvCByU-17">
          <mxGeometry relative="1" as="geometry">
            <mxPoint x="420" y="200" as="targetPoint" />
          </mxGeometry>
        </mxCell>
        <mxCell id="pCHAXBvN4n9YsazvCByU-17" value="Total = 0" style="rounded=0;whiteSpace=wrap;html=1;labelBackgroundColor=none;" vertex="1" parent="1">
          <mxGeometry x="370" y="120" width="100" height="40" as="geometry" />
        </mxCell>
        <mxCell id="pCHAXBvN4n9YsazvCByU-20" style="edgeStyle=orthogonalEdgeStyle;rounded=0;orthogonalLoop=1;jettySize=auto;html=1;labelBackgroundColor=none;fontColor=default;" edge="1" parent="1">
          <mxGeometry relative="1" as="geometry">
            <mxPoint x="420" y="320" as="targetPoint" />
            <mxPoint x="420" y="280" as="sourcePoint" />
          </mxGeometry>
        </mxCell>
        <mxCell id="pCHAXBvN4n9YsazvCByU-19" value="nama_barang = input(&quot;Nama Barang:&quot;)&lt;br&gt;banyak_barang = input(&quot;Banyak Barang:&quot;)" style="shape=parallelogram;perimeter=parallelogramPerimeter;whiteSpace=wrap;html=1;fixedSize=1;rounded=0;labelBackgroundColor=none;" vertex="1" parent="1">
          <mxGeometry x="280" y="200" width="280" height="80" as="geometry" />
        </mxCell>
        <mxCell id="pCHAXBvN4n9YsazvCByU-22" style="edgeStyle=orthogonalEdgeStyle;rounded=0;orthogonalLoop=1;jettySize=auto;html=1;labelBackgroundColor=none;fontColor=default;" edge="1" parent="1" source="pCHAXBvN4n9YsazvCByU-21">
          <mxGeometry relative="1" as="geometry">
            <mxPoint x="420" y="400" as="targetPoint" />
          </mxGeometry>
        </mxCell>
        <mxCell id="pCHAXBvN4n9YsazvCByU-21" value="total = total +&amp;nbsp;&lt;br&gt;(banyak_barang * harga_barang)" style="rounded=0;whiteSpace=wrap;html=1;labelBackgroundColor=none;" vertex="1" parent="1">
          <mxGeometry x="320" y="320" width="200" height="40" as="geometry" />
        </mxCell>
        <mxCell id="pCHAXBvN4n9YsazvCByU-24" style="edgeStyle=orthogonalEdgeStyle;rounded=0;orthogonalLoop=1;jettySize=auto;html=1;labelBackgroundColor=none;fontColor=default;" edge="1" parent="1" source="pCHAXBvN4n9YsazvCByU-23">
          <mxGeometry relative="1" as="geometry">
            <mxPoint x="420" y="520" as="targetPoint" />
          </mxGeometry>
        </mxCell>
        <mxCell id="pCHAXBvN4n9YsazvCByU-23" value="lagi = input(&quot;ada lagi?&quot;)" style="shape=parallelogram;perimeter=parallelogramPerimeter;whiteSpace=wrap;html=1;fixedSize=1;rounded=0;labelBackgroundColor=none;" vertex="1" parent="1">
          <mxGeometry x="340" y="400" width="160" height="60" as="geometry" />
        </mxCell>
        <mxCell id="pCHAXBvN4n9YsazvCByU-26" style="edgeStyle=orthogonalEdgeStyle;rounded=0;orthogonalLoop=1;jettySize=auto;html=1;labelBackgroundColor=none;fontColor=default;" edge="1" parent="1" source="pCHAXBvN4n9YsazvCByU-25" target="pCHAXBvN4n9YsazvCByU-19">
          <mxGeometry relative="1" as="geometry">
            <mxPoint x="240" y="200" as="targetPoint" />
            <Array as="points">
              <mxPoint x="241" y="560" />
              <mxPoint x="241" y="240" />
            </Array>
          </mxGeometry>
        </mxCell>
        <mxCell id="pCHAXBvN4n9YsazvCByU-29" value="Yes" style="edgeLabel;html=1;align=center;verticalAlign=middle;resizable=0;points=[];rounded=0;labelBackgroundColor=none;" vertex="1" connectable="0" parent="pCHAXBvN4n9YsazvCByU-26">
          <mxGeometry x="-0.7636" y="1" relative="1" as="geometry">
            <mxPoint as="offset" />
          </mxGeometry>
        </mxCell>
        <mxCell id="pCHAXBvN4n9YsazvCByU-30" style="edgeStyle=orthogonalEdgeStyle;rounded=0;orthogonalLoop=1;jettySize=auto;html=1;labelBackgroundColor=none;fontColor=default;" edge="1" parent="1" source="pCHAXBvN4n9YsazvCByU-25">
          <mxGeometry relative="1" as="geometry">
            <mxPoint x="420" y="640" as="targetPoint" />
          </mxGeometry>
        </mxCell>
        <mxCell id="pCHAXBvN4n9YsazvCByU-31" value="No" style="edgeLabel;html=1;align=center;verticalAlign=middle;resizable=0;points=[];rounded=0;labelBackgroundColor=none;" vertex="1" connectable="0" parent="pCHAXBvN4n9YsazvCByU-30">
          <mxGeometry x="-0.2471" relative="1" as="geometry">
            <mxPoint y="5" as="offset" />
          </mxGeometry>
        </mxCell>
        <mxCell id="pCHAXBvN4n9YsazvCByU-25" value="lagi = &quot;iya&quot; ?" style="rhombus;whiteSpace=wrap;html=1;rounded=0;labelBackgroundColor=none;" vertex="1" parent="1">
          <mxGeometry x="380" y="520" width="80" height="80" as="geometry" />
        </mxCell>
        <mxCell id="pCHAXBvN4n9YsazvCByU-33" style="edgeStyle=orthogonalEdgeStyle;rounded=0;orthogonalLoop=1;jettySize=auto;html=1;labelBackgroundColor=none;fontColor=default;" edge="1" parent="1" source="pCHAXBvN4n9YsazvCByU-32">
          <mxGeometry relative="1" as="geometry">
            <mxPoint x="420" y="720" as="targetPoint" />
          </mxGeometry>
        </mxCell>
        <mxCell id="pCHAXBvN4n9YsazvCByU-32" value="print(total)" style="shape=parallelogram;perimeter=parallelogramPerimeter;whiteSpace=wrap;html=1;fixedSize=1;rounded=0;labelBackgroundColor=none;" vertex="1" parent="1">
          <mxGeometry x="360" y="640" width="120" height="40" as="geometry" />
        </mxCell>
        <mxCell id="pCHAXBvN4n9YsazvCByU-35" style="edgeStyle=orthogonalEdgeStyle;rounded=0;orthogonalLoop=1;jettySize=auto;html=1;labelBackgroundColor=none;fontColor=default;" edge="1" parent="1" source="pCHAXBvN4n9YsazvCByU-34">
          <mxGeometry relative="1" as="geometry">
            <mxPoint x="420" y="840" as="targetPoint" />
          </mxGeometry>
        </mxCell>
        <mxCell id="pCHAXBvN4n9YsazvCByU-34" value="uang = input(&quot;Uang anda&quot;)" style="shape=parallelogram;perimeter=parallelogramPerimeter;whiteSpace=wrap;html=1;fixedSize=1;rounded=0;labelBackgroundColor=none;" vertex="1" parent="1">
          <mxGeometry x="320" y="720" width="200" height="60" as="geometry" />
        </mxCell>
        <mxCell id="pCHAXBvN4n9YsazvCByU-37" style="edgeStyle=orthogonalEdgeStyle;rounded=0;orthogonalLoop=1;jettySize=auto;html=1;labelBackgroundColor=none;fontColor=default;" edge="1" parent="1" source="pCHAXBvN4n9YsazvCByU-36">
          <mxGeometry relative="1" as="geometry">
            <mxPoint x="420" y="920" as="targetPoint" />
          </mxGeometry>
        </mxCell>
        <mxCell id="pCHAXBvN4n9YsazvCByU-36" value="kembalian = &lt;br&gt;uang - total" style="rounded=0;whiteSpace=wrap;html=1;labelBackgroundColor=none;" vertex="1" parent="1">
          <mxGeometry x="360" y="840" width="120" height="40" as="geometry" />
        </mxCell>
        <mxCell id="pCHAXBvN4n9YsazvCByU-39" style="edgeStyle=orthogonalEdgeStyle;rounded=0;orthogonalLoop=1;jettySize=auto;html=1;labelBackgroundColor=none;fontColor=default;" edge="1" parent="1" source="pCHAXBvN4n9YsazvCByU-38">
          <mxGeometry relative="1" as="geometry">
            <mxPoint x="420" y="1000" as="targetPoint" />
          </mxGeometry>
        </mxCell>
        <mxCell id="pCHAXBvN4n9YsazvCByU-38" value="print(kembalian)" style="shape=parallelogram;perimeter=parallelogramPerimeter;whiteSpace=wrap;html=1;fixedSize=1;rounded=0;labelBackgroundColor=none;" vertex="1" parent="1">
          <mxGeometry x="360" y="920" width="120" height="40" as="geometry" />
        </mxCell>
        <mxCell id="pCHAXBvN4n9YsazvCByU-40" value="Selesai" style="ellipse;whiteSpace=wrap;html=1;rounded=0;labelBackgroundColor=none;" vertex="1" parent="1">
          <mxGeometry x="360" y="1000" width="120" height="80" as="geometry" />
        </mxCell>
        <mxCell id="pCHAXBvN4n9YsazvCByU-41" value="1." style="text;html=1;strokeColor=none;fillColor=none;align=center;verticalAlign=middle;whiteSpace=wrap;rounded=0;labelBackgroundColor=none;" vertex="1" parent="1">
          <mxGeometry x="350" y="50" width="20" height="20" as="geometry" />
        </mxCell>
        <mxCell id="pCHAXBvN4n9YsazvCByU-42" value="2." style="text;html=1;strokeColor=none;fillColor=none;align=center;verticalAlign=middle;whiteSpace=wrap;rounded=0;labelBackgroundColor=none;" vertex="1" parent="1">
          <mxGeometry x="350" y="130" width="20" height="20" as="geometry" />
        </mxCell>
        <mxCell id="pCHAXBvN4n9YsazvCByU-43" value="3." style="text;html=1;strokeColor=none;fillColor=none;align=center;verticalAlign=middle;whiteSpace=wrap;rounded=0;labelBackgroundColor=none;" vertex="1" parent="1">
          <mxGeometry x="270" y="210" width="20" height="20" as="geometry" />
        </mxCell>
        <mxCell id="pCHAXBvN4n9YsazvCByU-44" value="4." style="text;html=1;strokeColor=none;fillColor=none;align=center;verticalAlign=middle;whiteSpace=wrap;rounded=0;labelBackgroundColor=none;" vertex="1" parent="1">
          <mxGeometry x="300" y="330" width="20" height="20" as="geometry" />
        </mxCell>
        <mxCell id="pCHAXBvN4n9YsazvCByU-45" value="5." style="text;html=1;strokeColor=none;fillColor=none;align=center;verticalAlign=middle;whiteSpace=wrap;rounded=0;labelBackgroundColor=none;" vertex="1" parent="1">
          <mxGeometry x="320" y="420" width="20" height="20" as="geometry" />
        </mxCell>
        <mxCell id="pCHAXBvN4n9YsazvCByU-47" value="6." style="text;html=1;strokeColor=none;fillColor=none;align=center;verticalAlign=middle;whiteSpace=wrap;rounded=0;labelBackgroundColor=none;" vertex="1" parent="1">
          <mxGeometry x="370" y="530" width="20" height="20" as="geometry" />
        </mxCell>
        <mxCell id="pCHAXBvN4n9YsazvCByU-48" value="7." style="text;html=1;strokeColor=none;fillColor=none;align=center;verticalAlign=middle;whiteSpace=wrap;rounded=0;labelBackgroundColor=none;" vertex="1" parent="1">
          <mxGeometry x="220" y="230" width="20" height="20" as="geometry" />
        </mxCell>
        <mxCell id="pCHAXBvN4n9YsazvCByU-50" value="8." style="text;html=1;strokeColor=none;fillColor=none;align=center;verticalAlign=middle;whiteSpace=wrap;rounded=0;labelBackgroundColor=none;" vertex="1" parent="1">
          <mxGeometry x="340" y="640" width="20" height="20" as="geometry" />
        </mxCell>
        <mxCell id="pCHAXBvN4n9YsazvCByU-51" value="9." style="text;html=1;strokeColor=none;fillColor=none;align=center;verticalAlign=middle;whiteSpace=wrap;rounded=0;labelBackgroundColor=none;" vertex="1" parent="1">
          <mxGeometry x="300" y="740" width="20" height="20" as="geometry" />
        </mxCell>
        <mxCell id="pCHAXBvN4n9YsazvCByU-52" value="10." style="text;html=1;strokeColor=none;fillColor=none;align=center;verticalAlign=middle;whiteSpace=wrap;rounded=0;labelBackgroundColor=none;" vertex="1" parent="1">
          <mxGeometry x="340" y="850" width="20" height="20" as="geometry" />
        </mxCell>
        <mxCell id="pCHAXBvN4n9YsazvCByU-53" value="11." style="text;html=1;strokeColor=none;fillColor=none;align=center;verticalAlign=middle;whiteSpace=wrap;rounded=0;labelBackgroundColor=none;" vertex="1" parent="1">
          <mxGeometry x="340" y="930" width="20" height="20" as="geometry" />
        </mxCell>
        <mxCell id="pCHAXBvN4n9YsazvCByU-54" value="12." style="text;html=1;strokeColor=none;fillColor=none;align=center;verticalAlign=middle;whiteSpace=wrap;rounded=0;labelBackgroundColor=none;" vertex="1" parent="1">
          <mxGeometry x="340" y="1030" width="20" height="20" as="geometry" />
        </mxCell>
      </root>
    </mxGraphModel>
  </diagram>
  <diagram id="BE5G038K32oi9z1mjbJh" name="Type-2">
    <mxGraphModel dx="573" dy="353" grid="1" gridSize="10" guides="1" tooltips="1" connect="1" arrows="1" fold="1" page="1" pageScale="1" pageWidth="827" pageHeight="1169" math="0" shadow="0">
      <root>
        <mxCell id="0" />
        <mxCell id="1" parent="0" />
        <mxCell id="VCZs8Lu_m5qx6SrbXHTg-1" value="&lt;font style=&quot;&quot;&gt;&lt;span style=&quot;font-size: 20px;&quot;&gt;Sistem Pembayaran&lt;/span&gt;&lt;br&gt;&lt;ul style=&quot;&quot;&gt;&lt;li style=&quot;&quot;&gt;&lt;font style=&quot;font-size: 12px;&quot;&gt;Tipe 2&lt;/font&gt;&lt;/li&gt;&lt;/ul&gt;&lt;/font&gt;" style="text;html=1;strokeColor=none;fillColor=none;align=left;verticalAlign=middle;whiteSpace=wrap;rounded=0;labelBackgroundColor=none;" vertex="1" parent="1">
          <mxGeometry x="10" y="10" width="200" height="80" as="geometry" />
        </mxCell>
        <mxCell id="jA0F0KKEJENKA-tS8nEi-1" style="edgeStyle=orthogonalEdgeStyle;rounded=0;orthogonalLoop=1;jettySize=auto;html=1;" edge="1" parent="1" source="i8ZgZ-Ek12jiNxHXCMfJ-1">
          <mxGeometry relative="1" as="geometry">
            <mxPoint x="420" y="120" as="targetPoint" />
          </mxGeometry>
        </mxCell>
        <mxCell id="i8ZgZ-Ek12jiNxHXCMfJ-1" value="Mulai" style="ellipse;whiteSpace=wrap;html=1;" vertex="1" parent="1">
          <mxGeometry x="360" y="40" width="120" height="40" as="geometry" />
        </mxCell>
        <mxCell id="d1Ao-AFvsYPYYytMXCsj-1" value="" style="shape=parallelogram;perimeter=parallelogramPerimeter;whiteSpace=wrap;html=1;fixedSize=1;" vertex="1" parent="1">
          <mxGeometry x="360" y="120" width="120" height="60" as="geometry" />
        </mxCell>
      </root>
    </mxGraphModel>
  </diagram>
</mxfile>
